<?xml version="1.0" encoding="UTF-8" standalone="no"?>
<!DOCTYPE svg PUBLIC "-//W3C//DTD SVG 1.1//EN" "http://www.w3.org/Graphics/SVG/1.1/DTD/svg11.dtd">
<svg width="100%" height="100%" viewBox="0 0 1532 401" version="1.1" xmlns="http://www.w3.org/2000/svg" xmlns:xlink="http://www.w3.org/1999/xlink" xml:space="preserve" xmlns:serif="http://www.serif.com/" style="fill-rule:evenodd;clip-rule:evenodd;stroke-linejoin:round;stroke-miterlimit:2;">
    <g transform="matrix(1,0,0,1,-1213,-383)">
        <g id="Artboard2" transform="matrix(0.982681,0,0,0.345392,54.418858,383)">
            <rect x="1179" y="0" width="1559" height="1161" style="fill:none;"/>
            <g transform="matrix(0.448443,0,0,1.275875,1191.691512,30.856286)">
                <path d="M51.55,23.7C67.06,14.93 85.69,14.18 102.95,16.78C128.4,20.68 152.41,30.95 174.92,43.15C213.05,63.96 246.22,92.56 277.13,122.81C322.05,167.33 362.21,216.46 399.12,267.75C428.85,309.75 457.22,352.95 480,399.17C497.25,363.91 518.12,330.57 539.9,297.96C561.11,266.53 583.65,236 607.53,206.54C632.97,175.19 659.89,145 688.94,116.93C714.98,91.96 742.64,68.33 773.67,49.72C792.44,38.52 812.24,28.83 833.15,22.31C851.66,16.72 871.51,13.22 890.72,17.13C904.82,19.92 917.87,27.94 926.29,39.64C937.5,55.02 941.72,74.25 943.31,92.9C944.48,105.95 943.86,119.06 943.05,132.11C939.97,182.79 935.77,233.4 930.99,283.94C928.97,304.96 926.77,325.97 924.12,346.92C922.01,361.67 920.54,376.67 915.6,390.82C905.56,422.02 886.87,450.56 861.34,471.24C836.61,491.55 806.42,504.44 775.29,511.13C737.46,519.34 698.16,518.98 660.02,513.07C700.03,520.26 740.01,531.2 775.52,551.5C798.95,565.03 820.7,583.42 832.91,608.02C843.14,628.18 845.09,651.98 839.59,673.8C832.36,703.08 814.76,728.63 794.56,750.55C777.4,768.77 758.86,785.82 738.39,800.28C716.49,815.62 691.8,828.19 665,831.63C643.96,834.45 622.16,830.46 603.42,820.52C578.84,807.7 559.51,786.87 543.75,764.42C518.53,728 501.44,686.72 487.22,644.97C485.03,639.05 483.4,632.89 480.66,627.19C480.32,627.2 479.64,627.22 479.3,627.23C474.93,637.31 472.02,647.97 468.13,658.24C454.79,695.56 438.61,732.24 415.91,764.9C404.5,781.12 391.31,796.29 375.53,808.41C362.64,818.32 347.89,826.05 332,829.76C315.03,833.86 297.11,833.17 280.27,828.81C260.21,823.63 241.61,813.9 224.55,802.31C206.2,789.73 189.44,774.97 173.79,759.2C153.06,738.46 134.54,714.6 124.34,686.85C117.52,668.3 115.16,647.8 119.72,628.43C124.23,608.7 135.59,591.04 150.05,577.08C175.39,552.7 208.16,537.77 241.29,527.16C260.75,521.19 280.57,516.25 300.7,513.15C275.97,516.54 250.94,518.55 225.98,516.79C182.15,514.05 137.77,501.44 102.59,474.37C79.29,456.52 60.99,432.37 49.77,405.27C45.25,394.22 41.28,382.83 39.43,371C35.17,345.48 32.63,319.71 29.96,293.98C24.76,240.08 20.22,186.12 16.93,132.07C15.28,108.09 15.26,83.35 23.08,60.34C28.09,45.44 37.57,31.45 51.55,23.7Z" style="fill:white;fill-rule:nonzero;"/>
            </g>
            <g transform="matrix(1.918909,0,0,5.459525,891.265425,-170.302829)">
                <g transform="matrix(118.66394,0,0,118.66394,387,174)">
                    <path d="M0.171,-0C0.149,-0 0.129,-0.005 0.111,-0.016C0.092,-0.027 0.078,-0.041 0.067,-0.06C0.056,-0.078 0.051,-0.098 0.051,-0.12L0.051,-0.148L0.132,-0.148L0.132,-0.12C0.132,-0.109 0.136,-0.1 0.144,-0.092C0.151,-0.085 0.16,-0.081 0.171,-0.081L0.651,-0.081C0.662,-0.081 0.671,-0.085 0.678,-0.092C0.686,-0.1 0.69,-0.109 0.69,-0.12L0.69,-0.281C0.69,-0.292 0.686,-0.301 0.678,-0.308C0.671,-0.315 0.662,-0.319 0.651,-0.319L0.171,-0.319C0.149,-0.319 0.129,-0.325 0.111,-0.336C0.092,-0.346 0.078,-0.361 0.067,-0.379C0.056,-0.397 0.051,-0.417 0.051,-0.439L0.051,-0.6C0.051,-0.622 0.056,-0.642 0.067,-0.66C0.078,-0.679 0.092,-0.693 0.111,-0.704C0.129,-0.715 0.149,-0.72 0.171,-0.72L0.651,-0.72C0.673,-0.72 0.693,-0.715 0.712,-0.704C0.73,-0.693 0.744,-0.679 0.755,-0.66C0.766,-0.642 0.771,-0.622 0.771,-0.6L0.771,-0.572L0.69,-0.572L0.69,-0.6C0.69,-0.611 0.686,-0.62 0.678,-0.628C0.671,-0.635 0.662,-0.639 0.651,-0.639L0.171,-0.639C0.16,-0.639 0.151,-0.635 0.144,-0.628C0.136,-0.62 0.132,-0.611 0.132,-0.6L0.132,-0.439C0.132,-0.428 0.136,-0.419 0.144,-0.412C0.151,-0.405 0.16,-0.401 0.171,-0.401L0.651,-0.401C0.673,-0.401 0.693,-0.396 0.712,-0.385C0.73,-0.373 0.744,-0.359 0.755,-0.341C0.766,-0.323 0.771,-0.303 0.771,-0.281L0.771,-0.12C0.771,-0.098 0.766,-0.078 0.755,-0.06C0.744,-0.041 0.73,-0.027 0.712,-0.016C0.693,-0.005 0.673,-0 0.651,-0L0.171,-0Z" style="fill:white;fill-rule:nonzero;"/>
                </g>
                <g transform="matrix(118.66394,0,0,118.66394,484.541759,174)">
                    <path d="M0.054,-0L0.054,-0.77L0.136,-0.77L0.136,-0.331L0.296,-0.331L0.524,-0.58L0.632,-0.58L0.632,-0.579L0.369,-0.29L0.631,-0.001L0.631,-0L0.524,-0L0.296,-0.249L0.136,-0.249L0.136,-0L0.054,-0Z" style="fill:white;fill-rule:nonzero;"/>
                </g>
                <g transform="matrix(118.66394,0,0,118.66394,561.198664,174)">
                    <path d="M0.149,0.23L0.149,0.147L0.511,0.147C0.522,0.147 0.531,0.143 0.538,0.136C0.546,0.128 0.55,0.119 0.55,0.108L0.55,-0L0.163,-0C0.141,-0 0.121,-0.006 0.103,-0.017C0.084,-0.028 0.069,-0.042 0.059,-0.06C0.048,-0.079 0.042,-0.099 0.042,-0.121L0.042,-0.578L0.124,-0.578L0.124,-0.121C0.124,-0.11 0.128,-0.101 0.136,-0.093C0.143,-0.086 0.152,-0.082 0.163,-0.082L0.511,-0.082C0.522,-0.082 0.531,-0.086 0.538,-0.093C0.546,-0.101 0.55,-0.11 0.55,-0.121L0.55,-0.578L0.632,-0.578L0.632,0.108C0.632,0.131 0.627,0.151 0.616,0.17C0.605,0.188 0.591,0.203 0.573,0.213C0.554,0.225 0.534,0.23 0.511,0.23L0.149,0.23Z" style="fill:white;fill-rule:nonzero;"/>
                </g>
                <g transform="matrix(118.66394,0,0,118.66394,642.483463,174)">
                    <path d="M0.056,-0L0.056,-0.719L0.656,-0.719C0.678,-0.719 0.698,-0.713 0.717,-0.703C0.735,-0.692 0.749,-0.677 0.76,-0.659C0.771,-0.641 0.776,-0.621 0.776,-0.599L0.776,-0.388C0.776,-0.366 0.771,-0.346 0.76,-0.328C0.749,-0.31 0.735,-0.296 0.717,-0.285C0.698,-0.274 0.678,-0.268 0.656,-0.268L0.137,-0.268L0.137,-0L0.056,-0ZM0.176,-0.35L0.656,-0.35C0.667,-0.35 0.676,-0.354 0.683,-0.361C0.691,-0.368 0.695,-0.377 0.695,-0.388L0.695,-0.599C0.695,-0.61 0.691,-0.619 0.683,-0.627C0.676,-0.634 0.667,-0.638 0.656,-0.638L0.176,-0.638C0.165,-0.638 0.156,-0.634 0.148,-0.627C0.141,-0.619 0.137,-0.61 0.137,-0.599L0.137,-0.388C0.137,-0.377 0.141,-0.368 0.148,-0.361C0.156,-0.354 0.165,-0.35 0.176,-0.35Z" style="fill:white;fill-rule:nonzero;"/>
                </g>
                <g transform="matrix(118.66394,0,0,118.66394,736.346639,174)">
                    <path d="M0.172,-0C0.15,-0 0.13,-0.006 0.112,-0.017C0.093,-0.028 0.079,-0.042 0.068,-0.06C0.057,-0.079 0.051,-0.099 0.051,-0.121L0.051,-0.459C0.051,-0.481 0.057,-0.501 0.068,-0.519C0.079,-0.538 0.093,-0.553 0.112,-0.564C0.13,-0.575 0.15,-0.58 0.172,-0.58L0.52,-0.58C0.543,-0.58 0.563,-0.575 0.582,-0.564C0.6,-0.553 0.615,-0.538 0.626,-0.519C0.636,-0.501 0.642,-0.481 0.642,-0.459L0.642,-0.121C0.642,-0.099 0.636,-0.079 0.626,-0.06C0.615,-0.042 0.6,-0.028 0.582,-0.017C0.563,-0.006 0.543,-0 0.52,-0L0.172,-0ZM0.172,-0.082L0.52,-0.082C0.531,-0.082 0.54,-0.086 0.547,-0.093C0.555,-0.101 0.559,-0.11 0.559,-0.121L0.559,-0.459C0.559,-0.47 0.555,-0.479 0.547,-0.486C0.54,-0.494 0.531,-0.498 0.52,-0.498L0.172,-0.498C0.161,-0.498 0.152,-0.494 0.144,-0.486C0.137,-0.479 0.133,-0.47 0.133,-0.459L0.133,-0.121C0.133,-0.11 0.137,-0.101 0.144,-0.093C0.152,-0.086 0.161,-0.082 0.172,-0.082Z" style="fill:white;fill-rule:nonzero;"/>
                </g>
                <g transform="matrix(118.66394,0,0,118.66394,816.088807,174)">
                    <path d="M0.169,-0C0.147,-0 0.127,-0.006 0.108,-0.017C0.09,-0.028 0.075,-0.042 0.065,-0.06C0.053,-0.079 0.048,-0.099 0.048,-0.121L0.048,-0.129L0.13,-0.129L0.13,-0.121C0.13,-0.11 0.134,-0.101 0.142,-0.093C0.149,-0.086 0.158,-0.082 0.169,-0.082L0.517,-0.082C0.528,-0.082 0.537,-0.086 0.544,-0.093C0.552,-0.101 0.556,-0.11 0.556,-0.121L0.556,-0.21C0.556,-0.221 0.552,-0.23 0.544,-0.238C0.537,-0.245 0.528,-0.249 0.517,-0.249L0.169,-0.249C0.147,-0.249 0.127,-0.255 0.108,-0.266C0.09,-0.277 0.075,-0.291 0.065,-0.309C0.053,-0.328 0.048,-0.348 0.048,-0.37L0.048,-0.459C0.048,-0.481 0.053,-0.501 0.065,-0.519C0.075,-0.538 0.09,-0.553 0.108,-0.564C0.127,-0.575 0.147,-0.58 0.169,-0.58L0.517,-0.58C0.54,-0.58 0.56,-0.575 0.579,-0.564C0.597,-0.553 0.612,-0.538 0.623,-0.519C0.634,-0.501 0.639,-0.481 0.639,-0.459L0.639,-0.451L0.556,-0.451L0.556,-0.459C0.556,-0.47 0.552,-0.479 0.544,-0.486C0.537,-0.494 0.528,-0.498 0.517,-0.498L0.169,-0.498C0.158,-0.498 0.149,-0.494 0.142,-0.486C0.134,-0.479 0.13,-0.47 0.13,-0.459L0.13,-0.37C0.13,-0.359 0.134,-0.35 0.142,-0.343C0.149,-0.335 0.158,-0.331 0.169,-0.331L0.517,-0.331C0.54,-0.331 0.56,-0.326 0.579,-0.315C0.597,-0.303 0.612,-0.289 0.623,-0.271C0.634,-0.252 0.639,-0.232 0.639,-0.21L0.639,-0.121C0.639,-0.099 0.634,-0.079 0.623,-0.06C0.612,-0.042 0.597,-0.028 0.579,-0.017C0.56,-0.006 0.54,-0 0.517,-0L0.169,-0Z" style="fill:white;fill-rule:nonzero;"/>
                </g>
                <g transform="matrix(118.66394,0,0,118.66394,897.49227,174)">
                    <path d="M0.174,-0C0.151,-0 0.131,-0.006 0.113,-0.017C0.094,-0.028 0.08,-0.042 0.069,-0.06C0.058,-0.079 0.053,-0.099 0.053,-0.121L0.053,-0.77L0.135,-0.77L0.135,-0.58L0.386,-0.58L0.386,-0.498L0.135,-0.498L0.135,-0.121C0.135,-0.11 0.139,-0.101 0.146,-0.093C0.154,-0.086 0.163,-0.082 0.174,-0.082L0.386,-0.082L0.386,-0L0.174,-0Z" style="fill:white;fill-rule:nonzero;"/>
                </g>
            </g>
        </g>
    </g>
</svg>
